<?xml version="1.0" encoding="UTF-8"?>
<svg id="Layer_1" data-name="Layer 1" xmlns="http://www.w3.org/2000/svg" viewBox="0 0 512 512">
  <defs>
    <style>
      .cls-1 {
        fill: #fff;
      }
    </style>
  </defs>
  <path class="cls-1" d="M256,64c51.28,0,99.5,19.97,135.76,56.24,36.26,36.26,56.24,84.48,56.24,135.76s-19.97,99.5-56.24,135.76c-36.26,36.26-84.48,56.24-135.76,56.24s-99.5-19.97-135.76-56.24c-36.26-36.26-56.24-84.48-56.24-135.76s19.97-99.5,56.24-135.76c36.26-36.26,84.48-56.24,135.76-56.24M256,0h0C114.61,0,0,114.61,0,256H0C0,397.38,114.61,512,256,512h0c141.38,0,256-114.61,256-256h0C512,114.61,397.38,0,256,0h0Z"/>
</svg>